<mxfile host="app.diagrams.net" modified="2023-09-03T06:50:01.057Z" agent="Mozilla/5.0 (X11; Linux x86_64) AppleWebKit/537.36 (KHTML, like Gecko) Chrome/104.0.0.0 Safari/537.36" version="21.7.2" etag="5825MGxEIor2CH6hw230" type="github">
  <diagram name="Page-1" id="ZStI9szSgN-yVeggk44U">
    <mxGraphModel>
      <root>
        <mxCell id="0" />
        <mxCell id="1" parent="0" />
      </root>
    </mxGraphModel>
  </diagram>
</mxfile>
